<?xml version="1.0" encoding="UTF-8"?>
<svg xmlns="http://www.w3.org/2000/svg" viewBox="0 0 1200 630" width="1200" height="630">
  <defs>
    <linearGradient id="g5452" x1="86.56768508095853%" y1="15.900081996875073%" x2="13.432314919041474%" y2="84.09991800312493%">
      <stop offset="0%" stop-color="#0F766E"/>
      <stop offset="100%" stop-color="#115E59"/>
    </linearGradient>
  </defs>
  <rect width="1200" height="630" fill="url(#g5452)"/>
  <polygon points="254.5512613095343,250 374.5512613095343,190 494.5512613095343,250" fill="rgba(255,255,255,0.06)" stroke="rgba(255,255,255,0.12)" stroke-width="2"/><rect x="268.5512613095343" y="250" width="12" height="150" fill="rgba(255,255,255,0.08)"/><rect x="318.5512613095343" y="250" width="12" height="150" fill="rgba(255,255,255,0.08)"/><rect x="368.5512613095343" y="250" width="12" height="150" fill="rgba(255,255,255,0.08)"/><rect x="418.5512613095343" y="250" width="12" height="150" fill="rgba(255,255,255,0.08)"/><rect x="468.5512613095343" y="250" width="12" height="150" fill="rgba(255,255,255,0.08)"/><rect x="244.5512613095343" y="400" width="260" height="12" rx="2" fill="rgba(255,255,255,0.1)"/><path d="M 904.415930446703 146.4590734988451 L 949.415930446703 166.4590734988451 L 949.415930446703 206.4590734988451 C 949.415930446703 236.4590734988451 904.415930446703 256.4590734988451 904.415930446703 256.4590734988451 C 904.415930446703 256.4590734988451 859.415930446703 236.4590734988451 859.415930446703 206.4590734988451 L 859.415930446703 166.4590734988451 Z" fill="rgba(255,255,255,0.06)" stroke="rgba(255,255,255,0.15)" stroke-width="2"/><text x="643.2996479794383" y="185.0432711839676" font-family="sans-serif" font-size="23.661567996256053" fill="rgba(255,255,255,0.1760300093283877)">★</text><text x="931.7255194997415" y="108.65002785809338" font-family="sans-serif" font-size="33.858986989594996" fill="rgba(255,255,255,0.09506271071266384)">★</text><text x="1018.3144166599959" y="189.5311120711267" font-family="sans-serif" font-size="20.058649041689932" fill="rgba(255,255,255,0.17150834772735835)">★</text><text x="630.2427791757509" y="187.72087671793997" font-family="sans-serif" font-size="20.615391111001372" fill="rgba(255,255,255,0.1257787343300879)">★</text><text x="679.2510613100603" y="160.5850916635245" font-family="sans-serif" font-size="28.884277934208512" fill="rgba(255,255,255,0.09167081242892891)">★</text>
  <circle cx="440.4569271951914" cy="224.5557987364009" r="2.140338356141001" fill="rgba(255,255,255,0.044547387335915116)"/><circle cx="877.1030782721937" cy="147.40378822898492" r="1.4943498382344842" fill="rgba(255,255,255,0.05002837178297341)"/><circle cx="116.76005953922868" cy="596.526929824613" r="2.0094148768112063" fill="rgba(255,255,255,0.03847819383488968)"/><circle cx="441.1868266761303" cy="136.8683759844862" r="1.8122037150897086" fill="rgba(255,255,255,0.051483170543797314)"/><circle cx="1121.3733818382025" cy="184.3686910159886" r="2.537019683048129" fill="rgba(255,255,255,0.044553186285775155)"/><circle cx="6.0333204455673695" cy="338.31127835204825" r="2.3790380121208727" fill="rgba(255,255,255,0.07073795274598524)"/><circle cx="960.9165150672197" cy="65.73098841821775" r="1.4163858387619257" fill="rgba(255,255,255,0.07318589547183366)"/><circle cx="276.17553463205695" cy="339.4746704399586" r="1.8889864259399474" fill="rgba(255,255,255,0.051043344645295294)"/><circle cx="1093.3045076206326" cy="225.74248281307518" r="1.5212378879077733" fill="rgba(255,255,255,0.05372853144770488)"/><circle cx="752.2200129926205" cy="68.28057632083073" r="2.375017032958567" fill="rgba(255,255,255,0.05312059263931587)"/><circle cx="112.50748308375478" cy="258.48583948099986" r="2.9733867328613997" fill="rgba(255,255,255,0.06815017068991439)"/><circle cx="783.6325929500163" cy="124.50250350404531" r="2.332921454682946" fill="rgba(255,255,255,0.07817646937444805)"/><circle cx="446.8730617314577" cy="309.53050810843706" r="1.4655095147900283" fill="rgba(255,255,255,0.04578360772691667)"/><circle cx="280.23317344486713" cy="521.8294389825314" r="2.521968781016767" fill="rgba(255,255,255,0.05360248367767781)"/><circle cx="509.2352435924113" cy="251.8932128814049" r="2.9061324507929385" fill="rgba(255,255,255,0.07190747202374041)"/><circle cx="779.4824405573308" cy="94.01270069181919" r="1.0346943871118128" fill="rgba(255,255,255,0.0719087830465287)"/><circle cx="116.542037576437" cy="361.5659362147562" r="1.5969615150243044" fill="rgba(255,255,255,0.06676519691944122)"/><circle cx="892.9764853790402" cy="99.70064524328336" r="2.1864757030270994" fill="rgba(255,255,255,0.03973480293760076)"/><circle cx="667.5955697894096" cy="380.83115976769477" r="1.184940499253571" fill="rgba(255,255,255,0.031106506038922815)"/><circle cx="533.1583044491708" cy="200.16546415630728" r="1.3871738268062472" fill="rgba(255,255,255,0.037696036517154426)"/>
  <text x="600" y="335" font-family="system-ui, -apple-system, 'Segoe UI', sans-serif" font-size="68" font-weight="700" fill="rgba(0,0,0,0.15)" text-anchor="middle" letter-spacing="1">UPSC Cse Prelims</text>
  <text x="600" y="332" font-family="system-ui, -apple-system, 'Segoe UI', sans-serif" font-size="68" font-weight="700" fill="white" text-anchor="middle" letter-spacing="1">UPSC Cse Prelims</text>
  <g transform="translate(1140, 575)">
    <rect x="0" y="0" width="40" height="40" rx="8" fill="rgba(255,255,255,0.15)"/>
    <text x="20" y="29" font-family="sans-serif" font-weight="bold" font-size="24" fill="rgba(255,255,255,0.6)" text-anchor="middle">K</text>
  </g>
</svg>